<svg id="visual" viewBox="0 0 960 300" width="960" height="300" xmlns="http://www.w3.org/2000/svg" xmlns:xlink="http://www.w3.org/1999/xlink" version="1.1"><rect x="0" y="0" width="960" height="300" fill="#202731"></rect><path d="M0 295L16 286C32 277 64 259 96 243.3C128 227.7 160 214.3 192 221.5C224 228.7 256 256.3 288 269.2C320 282 352 280 384 273C416 266 448 254 480 254.7C512 255.3 544 268.7 576 277.2C608 285.7 640 289.3 672 270.5C704 251.7 736 210.3 768 186.5C800 162.7 832 156.3 864 177.8C896 199.3 928 248.7 944 273.3L960 298L960 0L944 0C928 0 896 0 864 0C832 0 800 0 768 0C736 0 704 0 672 0C640 0 608 0 576 0C544 0 512 0 480 0C448 0 416 0 384 0C352 0 320 0 288 0C256 0 224 0 192 0C160 0 128 0 96 0C64 0 32 0 16 0L0 0Z" fill="#fa7268"></path><path d="M0 199L16 186.3C32 173.7 64 148.3 96 135.2C128 122 160 121 192 139.7C224 158.3 256 196.7 288 209.3C320 222 352 209 384 202C416 195 448 194 480 199.8C512 205.7 544 218.3 576 225.7C608 233 640 235 672 230.7C704 226.3 736 215.7 768 211.7C800 207.7 832 210.3 864 194C896 177.7 928 142.3 944 124.7L960 107L960 0L944 0C928 0 896 0 864 0C832 0 800 0 768 0C736 0 704 0 672 0C640 0 608 0 576 0C544 0 512 0 480 0C448 0 416 0 384 0C352 0 320 0 288 0C256 0 224 0 192 0C160 0 128 0 96 0C64 0 32 0 16 0L0 0Z" fill="#ec6a92"></path><path d="M0 79L16 88.8C32 98.7 64 118.3 96 128C128 137.7 160 137.3 192 131.7C224 126 256 115 288 117.3C320 119.7 352 135.3 384 132.5C416 129.7 448 108.3 480 96.7C512 85 544 83 576 96.7C608 110.3 640 139.7 672 158C704 176.3 736 183.7 768 188.7C800 193.7 832 196.3 864 192.7C896 189 928 179 944 174L960 169L960 0L944 0C928 0 896 0 864 0C832 0 800 0 768 0C736 0 704 0 672 0C640 0 608 0 576 0C544 0 512 0 480 0C448 0 416 0 384 0C352 0 320 0 288 0C256 0 224 0 192 0C160 0 128 0 96 0C64 0 32 0 16 0L0 0Z" fill="#c970b3"></path><path d="M0 56L16 62.8C32 69.7 64 83.3 96 90.5C128 97.7 160 98.3 192 88.3C224 78.3 256 57.7 288 61.7C320 65.7 352 94.3 384 109.5C416 124.7 448 126.3 480 115C512 103.7 544 79.3 576 74.8C608 70.3 640 85.7 672 97.2C704 108.7 736 116.3 768 115.7C800 115 832 106 864 101C896 96 928 95 944 94.5L960 94L960 0L944 0C928 0 896 0 864 0C832 0 800 0 768 0C736 0 704 0 672 0C640 0 608 0 576 0C544 0 512 0 480 0C448 0 416 0 384 0C352 0 320 0 288 0C256 0 224 0 192 0C160 0 128 0 96 0C64 0 32 0 16 0L0 0Z" fill="#987ac3"></path><path d="M0 64L16 57.7C32 51.3 64 38.7 96 40.5C128 42.3 160 58.7 192 54.3C224 50 256 25 288 17.7C320 10.3 352 20.7 384 24.7C416 28.7 448 26.3 480 30C512 33.7 544 43.3 576 54.8C608 66.3 640 79.7 672 77.2C704 74.7 736 56.3 768 50.5C800 44.7 832 51.3 864 50C896 48.7 928 39.3 944 34.7L960 30L960 0L944 0C928 0 896 0 864 0C832 0 800 0 768 0C736 0 704 0 672 0C640 0 608 0 576 0C544 0 512 0 480 0C448 0 416 0 384 0C352 0 320 0 288 0C256 0 224 0 192 0C160 0 128 0 96 0C64 0 32 0 16 0L0 0Z" fill="#6281c0"></path></svg>