<svg id="visual" viewBox="0 0 960 300" width="960" height="300" xmlns="http://www.w3.org/2000/svg" xmlns:xlink="http://www.w3.org/1999/xlink" version="1.1"><rect x="0" y="0" width="960" height="300" fill="#202731"></rect><path d="M0 189L16 194.3C32 199.7 64 210.3 96 212.2C128 214 160 207 192 198.5C224 190 256 180 288 179.8C320 179.7 352 189.3 384 189.7C416 190 448 181 480 177.3C512 173.7 544 175.3 576 174.7C608 174 640 171 672 181C704 191 736 214 768 215.5C800 217 832 197 864 184.5C896 172 928 167 944 164.5L960 162L960 0L944 0C928 0 896 0 864 0C832 0 800 0 768 0C736 0 704 0 672 0C640 0 608 0 576 0C544 0 512 0 480 0C448 0 416 0 384 0C352 0 320 0 288 0C256 0 224 0 192 0C160 0 128 0 96 0C64 0 32 0 16 0L0 0Z" fill="#fa7268"></path><path d="M0 192L16 188.8C32 185.7 64 179.3 96 181.2C128 183 160 193 192 195.3C224 197.7 256 192.3 288 184.5C320 176.7 352 166.3 384 162.7C416 159 448 162 480 157.3C512 152.7 544 140.3 576 143.7C608 147 640 166 672 174.2C704 182.3 736 179.7 768 170.5C800 161.3 832 145.7 864 138.8C896 132 928 134 944 135L960 136L960 0L944 0C928 0 896 0 864 0C832 0 800 0 768 0C736 0 704 0 672 0C640 0 608 0 576 0C544 0 512 0 480 0C448 0 416 0 384 0C352 0 320 0 288 0C256 0 224 0 192 0C160 0 128 0 96 0C64 0 32 0 16 0L0 0Z" fill="#ec6a92"></path><path d="M0 139L16 135C32 131 64 123 96 116.5C128 110 160 105 192 105C224 105 256 110 288 119.2C320 128.3 352 141.7 384 140.8C416 140 448 125 480 118C512 111 544 112 576 120.2C608 128.3 640 143.7 672 147.8C704 152 736 145 768 139.7C800 134.3 832 130.7 864 131.5C896 132.3 928 137.7 944 140.3L960 143L960 0L944 0C928 0 896 0 864 0C832 0 800 0 768 0C736 0 704 0 672 0C640 0 608 0 576 0C544 0 512 0 480 0C448 0 416 0 384 0C352 0 320 0 288 0C256 0 224 0 192 0C160 0 128 0 96 0C64 0 32 0 16 0L0 0Z" fill="#c970b3"></path><path d="M0 99L16 99.2C32 99.3 64 99.7 96 96.8C128 94 160 88 192 89.3C224 90.7 256 99.3 288 97.3C320 95.3 352 82.7 384 83.7C416 84.7 448 99.3 480 102.3C512 105.3 544 96.7 576 90C608 83.3 640 78.7 672 74.7C704 70.7 736 67.3 768 66.7C800 66 832 68 864 66.7C896 65.3 928 60.7 944 58.3L960 56L960 0L944 0C928 0 896 0 864 0C832 0 800 0 768 0C736 0 704 0 672 0C640 0 608 0 576 0C544 0 512 0 480 0C448 0 416 0 384 0C352 0 320 0 288 0C256 0 224 0 192 0C160 0 128 0 96 0C64 0 32 0 16 0L0 0Z" fill="#987ac3"></path><path d="M0 40L16 43.3C32 46.7 64 53.3 96 54.5C128 55.7 160 51.3 192 52.3C224 53.3 256 59.7 288 59.2C320 58.7 352 51.3 384 45.8C416 40.3 448 36.7 480 34.2C512 31.7 544 30.3 576 29.3C608 28.3 640 27.7 672 27.5C704 27.3 736 27.7 768 31.7C800 35.7 832 43.3 864 44.7C896 46 928 41 944 38.5L960 36L960 0L944 0C928 0 896 0 864 0C832 0 800 0 768 0C736 0 704 0 672 0C640 0 608 0 576 0C544 0 512 0 480 0C448 0 416 0 384 0C352 0 320 0 288 0C256 0 224 0 192 0C160 0 128 0 96 0C64 0 32 0 16 0L0 0Z" fill="#6281c0"></path></svg>