<svg id="visual" viewBox="0 0 960 300" width="960" height="300" xmlns="http://www.w3.org/2000/svg" xmlns:xlink="http://www.w3.org/1999/xlink" version="1.1"><rect x="0" y="0" width="960" height="300" fill="#202731"></rect><path d="M0 187L16 182.5C32 178 64 169 96 174.2C128 179.3 160 198.7 192 213.3C224 228 256 238 288 241C320 244 352 240 384 224.3C416 208.7 448 181.3 480 171.8C512 162.3 544 170.7 576 177.7C608 184.7 640 190.3 672 194.3C704 198.3 736 200.7 768 193.5C800 186.3 832 169.7 864 172.2C896 174.7 928 196.3 944 207.2L960 218L960 0L944 0C928 0 896 0 864 0C832 0 800 0 768 0C736 0 704 0 672 0C640 0 608 0 576 0C544 0 512 0 480 0C448 0 416 0 384 0C352 0 320 0 288 0C256 0 224 0 192 0C160 0 128 0 96 0C64 0 32 0 16 0L0 0Z" fill="#fa7268"></path><path d="M0 168L16 164C32 160 64 152 96 151.7C128 151.3 160 158.7 192 163.2C224 167.7 256 169.3 288 169.3C320 169.3 352 167.7 384 166.5C416 165.3 448 164.7 480 158.7C512 152.7 544 141.3 576 144.8C608 148.3 640 166.7 672 167.8C704 169 736 153 768 144.7C800 136.3 832 135.7 864 133.8C896 132 928 129 944 127.5L960 126L960 0L944 0C928 0 896 0 864 0C832 0 800 0 768 0C736 0 704 0 672 0C640 0 608 0 576 0C544 0 512 0 480 0C448 0 416 0 384 0C352 0 320 0 288 0C256 0 224 0 192 0C160 0 128 0 96 0C64 0 32 0 16 0L0 0Z" fill="#ec6a92"></path><path d="M0 138L16 135.7C32 133.3 64 128.7 96 126.7C128 124.7 160 125.3 192 123.3C224 121.3 256 116.7 288 119.5C320 122.3 352 132.7 384 131.3C416 130 448 117 480 107.8C512 98.7 544 93.3 576 100.3C608 107.3 640 126.7 672 128.7C704 130.7 736 115.3 768 105.8C800 96.3 832 92.7 864 94.5C896 96.3 928 103.7 944 107.3L960 111L960 0L944 0C928 0 896 0 864 0C832 0 800 0 768 0C736 0 704 0 672 0C640 0 608 0 576 0C544 0 512 0 480 0C448 0 416 0 384 0C352 0 320 0 288 0C256 0 224 0 192 0C160 0 128 0 96 0C64 0 32 0 16 0L0 0Z" fill="#c970b3"></path><path d="M0 56L16 58.3C32 60.7 64 65.3 96 65.3C128 65.3 160 60.7 192 65.8C224 71 256 86 288 92.7C320 99.3 352 97.7 384 93.2C416 88.7 448 81.3 480 83C512 84.7 544 95.3 576 100.2C608 105 640 104 672 103.5C704 103 736 103 768 100.5C800 98 832 93 864 88.3C896 83.7 928 79.3 944 77.2L960 75L960 0L944 0C928 0 896 0 864 0C832 0 800 0 768 0C736 0 704 0 672 0C640 0 608 0 576 0C544 0 512 0 480 0C448 0 416 0 384 0C352 0 320 0 288 0C256 0 224 0 192 0C160 0 128 0 96 0C64 0 32 0 16 0L0 0Z" fill="#987ac3"></path><path d="M0 38L16 43.7C32 49.3 64 60.7 96 61C128 61.3 160 50.7 192 49.3C224 48 256 56 288 58.7C320 61.3 352 58.7 384 59.7C416 60.7 448 65.3 480 62C512 58.7 544 47.3 576 42.7C608 38 640 40 672 45.7C704 51.3 736 60.7 768 62.5C800 64.3 832 58.7 864 52.8C896 47 928 41 944 38L960 35L960 0L944 0C928 0 896 0 864 0C832 0 800 0 768 0C736 0 704 0 672 0C640 0 608 0 576 0C544 0 512 0 480 0C448 0 416 0 384 0C352 0 320 0 288 0C256 0 224 0 192 0C160 0 128 0 96 0C64 0 32 0 16 0L0 0Z" fill="#6281c0"></path></svg>